<svg width="197" height="86" viewBox="0 0 197 86" fill="none" xmlns="http://www.w3.org/2000/svg">
<rect x="0.648682" y="84.4744" width="196" height="1" rx="0.5" fill="#00A5EC"/>
<g opacity="0.2">
<path opacity="0.8" fill-rule="evenodd" clip-rule="evenodd" d="M17.8113 0.421387H156.448C160.96 0.421387 165.286 2.21356 168.477 5.40368C171.667 8.5938 173.459 12.9205 173.459 17.432C173.459 18.8791 173.274 20.3072 172.919 21.6848H175.385C181.025 21.6848 186.433 23.925 190.421 27.9127C194.408 31.9003 196.649 37.3087 196.649 42.9481C196.649 48.5875 194.408 53.9959 190.421 57.9836C186.433 61.9712 181.025 64.2114 175.385 64.2114H172.919C173.275 65.589 173.459 67.017 173.459 68.4639C173.459 70.6978 173.019 72.9098 172.164 74.9736C171.309 77.0375 170.056 78.9127 168.477 80.4923C166.897 82.0719 165.022 83.3249 162.958 84.1797C160.894 85.0346 158.682 85.4746 156.448 85.4746H17.8114C15.5775 85.4746 13.3655 85.0346 11.3017 84.1797C9.23786 83.3249 7.36262 82.0719 5.78303 80.4923C4.20345 78.9127 2.95045 77.0375 2.09558 74.9736C1.24072 72.9098 0.800726 70.6978 0.800726 68.4639C0.800726 63.9524 2.59292 59.6257 5.78303 56.4356C8.97315 53.2455 13.2999 51.4533 17.8114 51.4533H25.7656C24.6058 48.7959 23.9905 45.9037 23.9905 42.9481C23.9905 39.9924 24.6059 37.1002 25.7657 34.4427H17.8113C13.2998 34.4427 8.97308 32.6505 5.78297 29.4604C2.59285 26.2703 0.800659 21.9436 0.800659 17.432C0.800659 12.9205 2.59285 8.5938 5.78297 5.40368C8.97308 2.21356 13.2998 0.421387 17.8113 0.421387Z" fill="#EAFCFF"/>
</g>
<path d="M51.3184 81.0388H134.575C135.969 81.0388 137.23 80.2118 137.786 78.9335L161.013 25.4686C162.017 23.1571 160.323 20.5739 157.803 20.5739H74.5461C73.1523 20.5739 71.8913 21.4009 71.336 22.6793L48.1083 76.1442C47.1041 78.4556 48.7983 81.0388 51.3184 81.0388Z" fill="white" stroke="#00A5EC"/>
<path d="M37.1261 29.8254H122.052C123.619 29.8254 124.995 30.8667 125.42 32.3745L137.902 76.5877C138.533 78.8211 136.855 81.0386 134.534 81.0386H50.43C48.8855 81.0386 47.5235 80.0262 47.0785 78.5471L33.7746 34.3339C33.0987 32.0877 34.7804 29.8254 37.1261 29.8254Z" fill="white" stroke="#00A5EC"/>
<rect x="42.9163" y="65.3904" width="51.5686" height="0.961316" rx="0.480658" fill="#00A5EC"/>
<path d="M41.2151 59.5566C41.2151 59.2911 41.4303 59.0759 41.6957 59.0759H74.152C74.4174 59.0759 74.6326 59.2911 74.6326 59.5566V59.5566C74.6326 59.822 74.4174 60.0372 74.152 60.0372H41.6957C41.4303 60.0372 41.2151 59.822 41.2151 59.5566V59.5566Z" fill="#00A5EC"/>
</svg>
